<svg width="76" height="76" viewBox="0 0 76 76" fill="none" xmlns="http://www.w3.org/2000/svg">
<rect width="76" height="76" rx="8" fill="#F5F8FF"/>
<g clip-path="url(#clip0_46_8359)">
<path d="M28.8994 25.3001C32.9129 28.8943 35.9019 33.1527 37.6372 37.7626H38.3631C40.0984 33.1529 43.0872 28.8944 47.1008 25.3001C41.4471 20.4707 34.7426 20.3091 28.8994 25.3001Z" fill="#2757B9"/>
<path d="M25.0446 19.0617C24.1835 18.0331 22.656 17.905 21.6363 18.7629C17.4443 22.2808 16.8031 28.4447 20.0969 32.7382C21.9026 28.7883 24.5793 25.1128 27.9448 22.518L25.0446 19.0617Z" fill="#2757B9"/>
<path d="M54.3651 18.7637C53.3381 17.8998 51.8123 18.0381 50.9567 19.0603L48.0554 22.5178C51.4279 25.1183 54.1027 28.7981 55.9035 32.7378C59.1935 28.4489 58.5597 22.2837 54.3651 18.7637Z" fill="#2757B9"/>
<path d="M49.0806 27.2373C45.3909 30.5062 42.6375 34.3642 41.028 38.53C41.6788 39.3018 41.7872 40.5016 41.0165 41.3914L39.3818 43.279V43.7576C39.3818 45.5014 40.7939 46.9009 42.5252 46.9009C44.2584 46.9009 45.6684 45.4908 45.6684 43.7576C45.6684 42.9946 46.287 42.3759 47.0502 42.3759C47.8132 42.3759 48.4319 42.9945 48.4319 43.7576C48.4319 47.0146 45.7822 49.6643 42.5252 49.6643C42.4937 49.6643 42.4623 49.6628 42.4307 49.6623V52.4082C42.4307 53.1712 41.8121 53.7899 41.049 53.7899H34.9514C34.1884 53.7899 33.5697 53.1713 33.5697 52.4082V49.6623C33.5382 49.6628 33.5068 49.6643 33.4752 49.6643C30.2182 49.6643 27.5685 47.0146 27.5685 43.7576C27.5685 42.9946 28.1871 42.3759 28.9502 42.3759C29.7133 42.3759 30.332 42.9945 30.332 43.7576C30.332 45.4908 31.742 46.9009 33.4752 46.9009C35.1981 46.9009 36.6186 45.5093 36.6186 43.7576V43.279L34.9839 41.3914C34.2127 40.501 34.3216 39.3018 34.9725 38.5302C33.3629 34.3644 30.6096 30.5064 26.9198 27.2375C22.7609 31.855 20.2715 38.4114 20.2715 43.8321C20.2715 53.6725 28.1797 57.8044 38.0002 57.8044C47.8491 57.8044 55.7288 53.646 55.7288 43.8321C55.7287 38.3412 53.1934 31.8034 49.0806 27.2373ZM45.9216 38.9274C44.9121 38.9274 44.0938 38.109 44.0938 37.0996C44.0938 36.0901 44.9121 35.2718 45.9216 35.2718C46.931 35.2718 47.7494 36.0901 47.7494 37.0996C47.7494 38.109 46.931 38.9274 45.9216 38.9274ZM30.0784 35.2718C31.0879 35.2718 31.9062 36.0901 31.9062 37.0996C31.9062 38.109 31.0879 38.9274 30.0784 38.9274C29.069 38.9274 28.2506 38.109 28.2506 37.0996C28.2506 36.0901 29.069 35.2718 30.0784 35.2718Z" fill="#2757B9"/>
</g>
<defs>
<clipPath id="clip0_46_8359">
<rect width="40" height="40" fill="white" transform="translate(18 18)"/>
</clipPath>
</defs>
</svg>
