<svg width="76" height="76" viewBox="0 0 76 76" fill="none" xmlns="http://www.w3.org/2000/svg">
<rect width="76" height="76" rx="8" fill="#FFF6F5"/>
<g clip-path="url(#clip0_46_8327)">
<path d="M50.886 26.2812C50.886 21.7585 47.2056 18 42.6829 18C40.9204 18 39.2736 18.7541 37.9954 20.1114C36.717 18.7541 35.0702 18 33.3079 18C28.7851 18 25.1047 21.7585 25.1047 26.2812C25.1047 30.8303 28.4429 33.1786 32.3088 35.8988C33.9029 37.0203 35.5521 38.1808 37.2275 39.6342L37.9942 40.3002L38.7621 39.6353C40.6561 37.9965 42.4574 36.7137 44.0458 35.5818C47.867 32.8616 50.886 30.7124 50.886 26.2812ZM41.511 29.7969H39.1672V32.1406H36.8235V29.7969H34.4797V27.4531H36.8235V25.1094H39.1672V27.4531H41.511V29.7969Z" fill="#FF7468"/>
<path d="M56.5892 28.7188C54.1985 28.7188 53.5814 39.8281 53.5344 40.0626C53.2964 41.6904 52.1497 44.1001 50.2131 45.551L45.1372 49.2364L43.7319 47.3596L48.8078 43.6753C50.8185 42.1678 51.7349 39.5937 49.2219 39.5937C46.9713 39.5937 42.7643 42.1995 41.5172 43.2331C40.0279 44.4675 39.1672 46.3016 39.1672 48.2359V58.0001H46.1985C46.1985 56.875 46.8079 55.6484 47.7453 54.4766C48.7297 53.1875 50.136 51.875 51.589 50.5391C54.3547 47.9375 57.2218 45.2656 57.5969 42.547C57.8196 40.7207 58.0045 37.5885 57.9953 34.797C57.9851 31.6708 57.7203 28.8198 56.5892 28.7188Z" fill="#FF7468"/>
<path d="M34.1986 43.0157C30.8938 40.7422 28.3861 39.5937 26.769 39.5937C24.256 39.5937 25.1724 42.1678 27.1831 43.6753L32.259 47.3596L30.8536 49.2364L25.7778 45.551C23.8411 44.1001 22.6943 41.6904 22.4563 40.0626C22.4093 39.8281 21.7922 28.7188 19.4015 28.7188C18.089 28.8359 17.9484 32.6562 18.0188 36.3125C18.0657 38.9844 18.2766 41.5859 18.3937 42.547C18.7688 45.2656 21.636 47.9376 24.4016 50.5391C25.8547 51.875 27.2609 53.1875 28.2454 54.4766C29.1828 55.6484 29.7922 56.875 29.7922 58.0001H36.8234V48.2827C36.8236 46.2123 35.8516 44.2621 34.1986 43.0157Z" fill="#FF7468"/>
</g>
<defs>
<clipPath id="clip0_46_8327">
<rect width="40" height="40" fill="white" transform="translate(18 18)"/>
</clipPath>
</defs>
</svg>
