<svg width="76" height="76" viewBox="0 0 76 76" fill="none" xmlns="http://www.w3.org/2000/svg">
<rect width="76" height="76" rx="8" fill="#EBF3F3"/>
<path d="M40.6459 47.4695C39.7737 48.0044 38.6568 48.2991 37.5008 48.2991C36.3448 48.2991 35.2279 48.0045 34.3557 47.4695L20.1169 38.7367C20.1169 38.7367 18.8317 37.9489 18.8317 39.7335C18.8317 41.7601 18.8317 47.8397 18.8317 47.8397C18.8317 47.9208 18.8317 48.3277 18.8317 48.4538C18.8317 53.0476 27.19 57.9998 37.5004 57.9998C47.8109 57.9998 56.1692 53.0477 56.1692 48.4538C56.1692 48.3277 56.1692 47.9208 56.1692 47.8397C56.1692 47.8397 56.1692 41.3914 56.1692 39.2419C56.1692 37.8094 55.2556 38.5094 55.2556 38.5094L40.6459 47.4695Z" fill="#42C9C2"/>
<path d="M61.1813 31.7902C62.2754 31.1193 62.2754 30.0213 61.1813 29.3502L39.4901 18.5032C38.396 17.8323 36.6057 17.8323 35.5116 18.5032L13.8206 29.3502C12.7265 30.0211 12.7265 31.1191 13.8206 31.7902L35.5116 45.0936C36.6057 45.7646 38.396 45.7646 39.4901 45.0936" fill="#42C9C2"/>
<path d="M60.2843 51.5088C60.2843 47.8357 60.2843 36.8164 60.2843 36.8164C60.2843 36.8164 60.2945 36.1205 59.8816 36.3503C59.5504 36.5346 58.7384 36.9872 58.4523 37.236C58.1221 37.5231 58.1965 38.1674 58.1965 38.1674C58.1965 38.1674 58.1965 48.1735 58.1965 51.5088C58.1965 51.6982 58.0338 51.7886 57.9561 51.8343C57.2063 52.2751 56.7021 53.0888 56.7021 54.0216C56.7021 55.4235 57.8385 56.5599 59.2405 56.5599C60.6424 56.5599 61.7787 55.4235 61.7787 54.0216C61.7787 53.0852 61.2708 52.2689 60.5162 51.8292C60.4412 51.7855 60.2843 51.6981 60.2843 51.5088Z" fill="#42C9C2"/>
</svg>
