<svg width="76" height="76" viewBox="0 0 76 76" fill="none" xmlns="http://www.w3.org/2000/svg">
<rect width="76" height="76" rx="8" fill="#FFFCF5"/>
<g clip-path="url(#clip0_46_8347)">
<path d="M42.5809 21.7847C40.6698 19.7114 38.7808 18.2929 38.7013 18.2335C38.2854 17.9228 37.7146 17.9228 37.2987 18.2335C37.2192 18.2929 35.3302 19.7114 33.4191 21.7847C30.7452 24.6853 29.3895 27.3668 29.3895 29.7548V30.296C29.3895 34.2217 32.6327 37.4763 36.8281 37.9938V34.338L34.3852 31.8068C33.9357 31.3411 33.9488 30.5992 34.4145 30.1498C34.8802 29.7003 35.622 29.7134 36.0716 30.1791L36.8281 30.963V28.6997L35.3494 26.9741C34.9282 26.4827 34.9852 25.7429 35.4766 25.3217C35.968 24.9006 36.7079 24.9575 37.1291 25.449L38 26.4653L38.8709 25.449C39.292 24.9575 40.0318 24.9005 40.5233 25.3217C41.0148 25.7429 41.0717 26.4827 40.6505 26.9741L39.1719 28.6997V30.963L39.9284 30.1791C40.378 29.7135 41.1198 29.7003 41.5855 30.1498C42.0511 30.5992 42.0643 31.3411 41.6148 31.8068L39.1719 34.338V37.9937C43.3673 37.4762 46.6105 34.2216 46.6105 30.2959V29.7547C46.6105 27.3668 45.2548 24.6853 42.5809 21.7847Z" fill="#F6B717"/>
<path d="M36.8281 37.9937V39.1494C36.8281 39.7965 37.3528 40.3212 38 40.3212C38.6472 40.3212 39.1719 39.7965 39.1719 39.1494V37.9937C38.7886 38.0409 38.3975 38.0659 38 38.0659C37.6026 38.0659 37.2115 38.0409 36.8281 37.9937Z" fill="#F6B717"/>
<path d="M57.3179 38.041C56.408 37.131 54.932 37.1316 54.0214 38.0422L46.8161 45.2475C46.5712 45.8381 46.2129 46.3702 45.7675 46.8156C44.8942 47.6889 43.6887 48.23 42.3597 48.2305L37.9569 48.2321C37.3086 48.2325 36.7834 47.7071 36.7837 47.0589C36.7839 46.4107 37.3096 45.885 37.9578 45.8848L42.3606 45.8831C43.7246 45.8825 44.8346 44.7724 44.8351 43.4085C44.8345 43.0231 44.5217 42.7109 44.1362 42.711L34.6691 42.7146C32.8057 42.7153 31.0184 43.4562 29.7003 44.7742L18 56.318V58H26.6071L31.937 52.6702L43.9281 52.5791C45.3144 52.5685 46.6413 52.0129 47.6219 51.0323L57.3166 41.3375C58.2273 40.4268 58.2279 38.951 57.3179 38.041Z" fill="#F6B717"/>
</g>
<defs>
<clipPath id="clip0_46_8347">
<rect width="40" height="40" fill="white" transform="translate(18 18)"/>
</clipPath>
</defs>
</svg>
