<svg width="96" height="96" viewBox="0 0 96 96" fill="none" xmlns="http://www.w3.org/2000/svg">
<rect width="96" height="96" rx="14" fill="#F6F9FF"/>
<g clip-path="url(#clip0_46_10214)">
<path d="M40.7 55.4426L41.2875 54.7824C40.8583 53.4106 40.8571 51.9004 41.3156 50.5059C37.9391 52.3609 33.6643 51.6217 31.1125 48.6035C29.2172 50.1066 28 52.4293 28 55.0309V66.7496C28 67.3965 28.525 67.9215 29.1719 67.9215H38.8266C38.6961 67.5551 38.625 67.1605 38.625 66.7496V60.8902C38.625 58.8809 39.3617 56.9457 40.7 55.4426Z" fill="#2757B9"/>
<path d="M37.375 49.1719C40.611 49.1719 43.2344 46.5485 43.2344 43.3125C43.2344 40.0765 40.611 37.4531 37.375 37.4531C34.139 37.4531 31.5156 40.0765 31.5156 43.3125C31.5156 46.5485 34.139 49.1719 37.375 49.1719Z" fill="#2757B9"/>
<path d="M64.8875 48.6035C62.3311 51.6272 58.0534 52.3583 54.6844 50.5051C55.1422 51.9024 55.1423 53.4087 54.7125 54.7824L55.3 55.4426C56.6383 56.9457 57.375 58.8809 57.375 60.8902V66.7496C57.375 67.1605 57.3039 67.5551 57.1734 67.9215H66.8281C67.475 67.9215 68 67.3965 68 66.7496V55.0309C68 52.4293 66.7828 50.1066 64.8875 48.6035Z" fill="#2757B9"/>
<path d="M58.625 49.1719C61.861 49.1719 64.4844 46.5485 64.4844 43.3125C64.4844 40.0765 61.861 37.4531 58.625 37.4531C55.389 37.4531 52.7656 40.0765 52.7656 43.3125C52.7656 46.5485 55.389 49.1719 58.625 49.1719Z" fill="#2757B9"/>
<path d="M48 59.7189C45.7469 59.7189 43.7383 58.6541 42.4508 57.001C41.5289 58.0369 40.9688 59.3994 40.9688 60.8908V66.7502C40.9688 67.3971 41.4938 67.9221 42.1406 67.9221H53.8594C54.5063 67.9221 55.0312 67.3971 55.0312 66.7502V60.8908C55.0312 59.3994 54.4711 58.0369 53.5492 57.001C52.2617 58.6541 50.2531 59.7189 48 59.7189Z" fill="#2757B9"/>
<path d="M48 57.375C50.5888 57.375 52.6875 55.2763 52.6875 52.6875C52.6875 50.0987 50.5888 48 48 48C45.4112 48 43.3125 50.0987 43.3125 52.6875C43.3125 55.2763 45.4112 57.375 48 57.375Z" fill="#2757B9"/>
<path d="M44.6655 37.5305C46.0035 38.767 47.3298 39.5883 47.3856 39.6226C47.7624 39.8545 48.2375 39.8545 48.6143 39.6226C48.6702 39.5883 49.9964 38.767 51.3344 37.5305C53.2691 35.7425 54.25 34.0043 54.25 32.3642C54.25 28.6395 50.5461 26.8912 48 28.9603C45.4482 26.8865 41.75 28.6494 41.75 32.3642C41.75 34.0043 42.7309 35.7425 44.6655 37.5305Z" fill="#2757B9"/>
</g>
<defs>
<clipPath id="clip0_46_10214">
<rect width="40" height="40" fill="white" transform="translate(28 28)"/>
</clipPath>
</defs>
</svg>
