<svg width="96" height="96" viewBox="0 0 96 96" fill="none" xmlns="http://www.w3.org/2000/svg">
<rect width="96" height="96" rx="14" fill="#FFFCF5"/>
<g clip-path="url(#clip0_43_2)">
<path d="M66.3554 58.7812H61.3156C60.9186 58.7812 60.5968 59.103 60.5968 59.5V69.3979C60.5968 69.7949 60.9186 70.1167 61.3156 70.1167H66.3554C66.7524 70.1167 67.0742 69.7949 67.0742 69.3979V59.5C67.0742 59.103 66.7524 58.7812 66.3554 58.7812Z" fill="#E9AF19"/>
<path d="M37.2188 42.9688V55.1875H57.3438V42.9688C57.3438 41.4438 56.7379 39.9812 55.6596 38.9029C54.5813 37.8246 53.1187 37.2188 51.5938 37.2188H42.9688C41.4438 37.2188 39.9812 37.8246 38.9029 38.9029C37.8246 39.9812 37.2188 41.4438 37.2188 42.9688ZM46.5582 42.9688L47.2812 43.7702L48.0043 42.9688C48.2251 42.7116 48.4988 42.5052 48.8068 42.3637C49.1148 42.2222 49.4497 42.149 49.7886 42.149C50.1275 42.149 50.4624 42.2222 50.7704 42.3637C51.0784 42.5052 51.3521 42.7116 51.5729 42.9688C51.99 43.4501 52.2449 44.0506 52.3013 44.685C52.3577 45.3194 52.2127 45.9555 51.887 46.5028C51.183 47.6796 50.2614 48.7116 49.1716 49.5439L47.2812 50.9763L45.3909 49.5439C44.3011 48.7116 43.3795 47.6796 42.6755 46.5028C42.3498 45.9555 42.2048 45.3194 42.2612 44.685C42.3176 44.0506 42.5725 43.4501 42.9896 42.9688C43.2104 42.7116 43.4841 42.5052 43.7921 42.3637C44.1001 42.2222 44.435 42.149 44.7739 42.149C45.1128 42.149 45.4477 42.2222 45.7557 42.3637C46.0637 42.5052 46.3374 42.7116 46.5582 42.9688Z" fill="#E9AF19"/>
<path d="M60.9447 37.1983C61.0223 36.8114 61.1915 36.4487 61.4383 36.1408C61.685 35.8329 62.0021 35.5887 62.3628 35.4287C62.364 35.4281 62.365 35.4272 62.3658 35.4261C62.3665 35.4249 62.3668 35.4236 62.3668 35.4222C62.3668 35.4209 62.3665 35.4196 62.3658 35.4184C62.365 35.4173 62.364 35.4164 62.3628 35.4158C62.0021 35.2558 61.685 35.0116 61.4383 34.7037C61.1915 34.3957 61.0223 34.0331 60.9447 33.6462C60.9441 33.6448 60.9431 33.6437 60.9418 33.6429C60.9405 33.642 60.939 33.6416 60.9375 33.6416C60.936 33.6416 60.9345 33.642 60.9332 33.6429C60.932 33.6437 60.931 33.6448 60.9303 33.6462C60.8528 34.0331 60.6835 34.3957 60.4367 34.7037C60.19 35.0116 59.8729 35.2558 59.5122 35.4158C59.511 35.4164 59.51 35.4173 59.5093 35.4184C59.5086 35.4196 59.5082 35.4209 59.5082 35.4222C59.5082 35.4236 59.5086 35.4249 59.5093 35.4261C59.51 35.4272 59.511 35.4281 59.5122 35.4287C59.8729 35.5887 60.19 35.8329 60.4367 36.1408C60.6835 36.4487 60.8528 36.8114 60.9303 37.1983C60.931 37.1997 60.932 37.2008 60.9332 37.2016C60.9345 37.2025 60.936 37.2029 60.9375 37.2029C60.939 37.2029 60.9405 37.2025 60.9418 37.2016C60.9431 37.2008 60.9441 37.1997 60.9447 37.1983Z" fill="#E9AF19"/>
<path d="M32.1947 44.7868C32.1941 44.7855 32.1931 44.7843 32.1918 44.7835C32.1905 44.7827 32.189 44.7822 32.1875 44.7822C32.186 44.7822 32.1845 44.7827 32.1832 44.7835C32.182 44.7843 32.181 44.7855 32.1803 44.7868C32.1028 45.1737 31.9335 45.5364 31.6867 45.8443C31.44 46.1522 31.1229 46.3964 30.7622 46.5564C30.761 46.557 30.76 46.5579 30.7593 46.5591C30.7586 46.5602 30.7582 46.5615 30.7582 46.5629C30.7582 46.5642 30.7586 46.5655 30.7593 46.5667C30.76 46.5678 30.761 46.5688 30.7622 46.5693C31.1229 46.7293 31.44 46.9735 31.6867 47.2815C31.9335 47.5894 32.1028 47.952 32.1803 48.3389C32.181 48.3403 32.182 48.3414 32.1832 48.3423C32.1845 48.3431 32.186 48.3435 32.1875 48.3435C32.189 48.3435 32.1905 48.3431 32.1918 48.3423C32.1931 48.3414 32.1941 48.3403 32.1947 48.3389C32.2723 47.952 32.4415 47.5894 32.6883 47.2815C32.935 46.9735 33.2521 46.7293 33.6128 46.5693C33.614 46.5688 33.615 46.5678 33.6158 46.5667C33.6165 46.5655 33.6168 46.5642 33.6168 46.5629C33.6168 46.5615 33.6165 46.5602 33.6158 46.5591C33.615 46.5579 33.614 46.557 33.6128 46.5564C33.2521 46.3964 32.935 46.1522 32.6883 45.8443C32.4415 45.5364 32.2723 45.1737 32.1947 44.7868Z" fill="#E9AF19"/>
<path d="M53.3906 31.1094C53.3906 29.9011 53.0323 28.7199 52.361 27.7152C51.6897 26.7105 50.7356 25.9275 49.6192 25.4651C48.5029 25.0026 47.2745 24.8817 46.0894 25.1174C44.9043 25.3531 43.8157 25.935 42.9613 26.7894C42.1069 27.6438 41.525 28.7324 41.2893 29.9175C41.0535 31.1026 41.1745 32.331 41.6369 33.4473C42.0993 34.5637 42.8824 35.5178 43.8871 36.1891C44.8917 36.8604 46.0729 37.2188 47.2813 37.2188C48.0835 37.2188 48.878 37.0607 49.6192 36.7537C50.3604 36.4467 51.0339 35.9967 51.6012 35.4294C52.1685 34.862 52.6186 34.1886 52.9256 33.4473C53.2326 32.7061 53.3906 31.9117 53.3906 31.1094ZM47.2813 35.0625C46.5188 35.0625 45.7875 34.7596 45.2483 34.2204C44.7092 33.6813 44.4063 32.95 44.4063 32.1875H50.1563C50.1563 32.95 49.8534 33.6813 49.3142 34.2204C48.775 34.7596 48.0438 35.0625 47.2813 35.0625Z" fill="#E9AF19"/>
<path d="M53.3856 60.2221L50.2482 58.988L42.8451 57.93C42.4195 57.8596 41.9827 57.9405 41.6105 58.1586C41.2383 58.3767 40.9542 58.7182 40.8075 59.1239C40.733 59.3526 40.7058 59.5941 40.7274 59.8337C40.7491 60.0733 40.8191 60.3059 40.9334 60.5176C41.0476 60.7293 41.2037 60.9156 41.3921 61.0652C41.5805 61.2148 41.7973 61.3246 42.0293 61.3879L47.6313 62.9153L43.7019 64.2248H39.7739L30.8671 61.2557C30.6181 61.1659 30.3497 61.1437 30.0892 61.1913C29.8288 61.2389 29.5856 61.3546 29.3844 61.5266C29.2186 61.6793 29.0918 61.8694 29.0147 62.0812C28.9377 62.2929 28.9125 62.5201 28.9414 62.7436C28.9702 62.967 29.0523 63.1803 29.1806 63.3655C29.309 63.5508 29.4799 63.7025 29.6791 63.8079L39.1191 68.8076L45.6655 70.1164L52.0782 68.5395C52.8019 68.3613 53.5445 68.2713 54.2898 68.2714H59.1679V60.8654H56.7752C55.615 60.8653 54.4652 60.647 53.3856 60.2221Z" fill="#E9AF19"/>
</g>
<defs>
<clipPath id="clip0_43_2">
<rect width="46" height="46" fill="white" transform="translate(25 25)"/>
</clipPath>
</defs>
</svg>
