<svg width="96" height="96" viewBox="0 0 96 96" fill="none" xmlns="http://www.w3.org/2000/svg">
<rect width="96" height="96" rx="14" fill="#FFF1EE"/>
<path d="M53.1563 46.6546L43.443 36.9401C40.9283 34.428 40.9189 30.3474 43.443 27.826C45.8751 25.3913 50.1237 25.3913 52.5583 27.826L53.1563 28.424L53.7555 27.826C56.1876 25.3914 60.4362 25.3914 62.8708 27.826C65.3838 30.339 65.3937 34.4187 62.8695 36.9401L53.1563 46.6546Z" fill="#FF7468"/>
<path d="M69.0575 49.6354C67.5173 48.1163 64.9564 48.3448 63.4219 49.8697L57.2711 55.9685C55.5703 57.6711 54.0592 57.6767 52.7279 57.8644H42.0025V55.2862H52.7279C53.1634 55.2328 53.5639 55.2658 54.2486 54.9681V50.13H38.9863C37.2742 50.13 35.6324 50.8101 34.4219 52.0206L31.4691 54.9734L41.0253 64.5316L42.5363 63.0206H52.7279C55.8147 63.0206 58.7213 61.8159 60.9042 59.6318C63.5541 57.0111 67.4659 53.1119 69.9998 50.5775C69.9034 50.4812 70.3487 50.9265 69.0575 49.6354Z" fill="#FF7468"/>
<path d="M29.6462 56.7959L26 60.4421L35.5572 69.9993L39.2025 66.354L29.6462 56.7959Z" fill="#FF7468"/>
</svg>
